<svg id="Layer_3" data-name="Layer 3" xmlns="http://www.w3.org/2000/svg" viewBox="0 0 96 96"><title>JAPKA</title><path d="M60.53,28.7a26,26,0,0,1,6.37.82A10.94,10.94,0,0,1,72.67,33C61.52,36.39,54.24,43.66,51.05,54.56,49.34,60.39,50,65.94,52.81,70.19s7.92,7,14.14,7.7c.86.09,1.73.16,2.62.22-2.24,2.88-4.46,5.5-7.66,6.78a4.21,4.21,0,0,1-1.57.24,21,21,0,0,1-2.66-.24l-.55-.08a12,12,0,0,1-3.19-1.09l-.4-.17a17.39,17.39,0,0,0-7-1.48,20.69,20.69,0,0,0-8.86,2.14,8.93,8.93,0,0,1-3.81.84,9.9,9.9,0,0,1-7.46-3.49h2.2c1.51,0,2.74,0,3.89-.08a22.27,22.27,0,0,0,5.8-1.1c3-1,4.26-2.68,4.77-3.92a6.79,6.79,0,0,0-.55-5.81,46,46,0,0,0-3.73-5.77l-1-1.46a19.21,19.21,0,0,0,2.1-3.08,47.39,47.39,0,0,0,3.5-8.05c1.68-5.64-.35-10.58-6.06-14.71-3.44-2.48-7.49-3.82-13.1-4.31a7.44,7.44,0,0,1,1.33-1.22,15.18,15.18,0,0,1,8.6-3,13.29,13.29,0,0,1,5.61,1.29,14.57,14.57,0,0,0,6.19,1.47,13.61,13.61,0,0,0,5.57-1.24,22,22,0,0,1,9-1.91m0-1.87a23.78,23.78,0,0,0-9.78,2.07A11.74,11.74,0,0,1,45.94,30a12.84,12.84,0,0,1-5.41-1.3,15.09,15.09,0,0,0-6.39-1.46,17,17,0,0,0-9.66,3.3c-1.49,1-2.56,2.66-4.19,4.43,1.64.07,2.44.09,3.23.15,4.54.35,8.94,1.29,12.69,4,4.14,3,7.06,7,5.36,12.65a45.54,45.54,0,0,1-3.36,7.73,29.34,29.34,0,0,1-2.76,3.87c2,2.89,4,5.36,5.43,8.15,1.73,3.38.49,5.91-3.13,7.1a20.11,20.11,0,0,1-5.32,1c-1.26.06-2.52.08-3.79.08-1.84,0-3.72,0-5.65,0A12.21,12.21,0,0,0,33.9,86.92a10.84,10.84,0,0,0,4.6-1,19,19,0,0,1,8.07-2,15.52,15.52,0,0,1,6.23,1.32,15.51,15.51,0,0,0,4.09,1.41,28.18,28.18,0,0,0,3.45.33,6.22,6.22,0,0,0,2.27-.37c4.74-1.9,7.4-6.14,10.6-10.16-2.32-.16-4.2-.24-6.07-.44-11.53-1.21-17.55-9.84-14.29-21,3.06-10.45,10.07-17.2,20.49-20.38.74-.22,1.48-.41,2.37-.66a12.74,12.74,0,0,0-8.36-6.33,27.63,27.63,0,0,0-6.82-.88Z" style="fill:#fff"/><path d="M59,11.05a15.74,15.74,0,0,1-3.42,9.56A14.12,14.12,0,0,1,46.23,26h0a14.77,14.77,0,0,1,4.43-10.19A15.74,15.74,0,0,1,59,11.05M60.72,9c-8.43.18-16.61,8.83-16.39,17.1,0,1.37.46,1.81,1.49,1.81.19,0,.39,0,.62,0,8.63-1,15.38-9.76,14.28-18.87Z" style="fill:#fff"/></svg>