<?xml version="1.0" encoding="utf-8"?>
<!-- Generator: Adobe Illustrator 22.1.0, SVG Export Plug-In . SVG Version: 6.00 Build 0)  -->
<svg version="1.1" xmlns="http://www.w3.org/2000/svg" xmlns:xlink="http://www.w3.org/1999/xlink" x="0px" y="0px"
	 viewBox="0 0 64 64" style="enable-background:new 0 0 64 64;" xml:space="preserve">
<style type="text/css">
	.st0{display:none;}
	.st1{display:inline;}
	.st2{display:inline;opacity:0.24;fill:#FFFFFF;}
	.st3{display:none;fill:none;stroke:#FFFFFF;stroke-width:0.693;stroke-miterlimit:10;}
	.st4{fill:#FFFFFF;}
	.st5{opacity:0.6;fill:#FFFFFF;}
</style>
<g id="Layer_2" class="st0">
	<rect x="-16.1" y="-16" class="st1" width="96.1" height="96.1"/>
</g>
<g id="Layer_4" class="st0">
	<rect x="6" y="6.2" class="st2" width="52.1" height="52.1"/>
</g>
<g id="Layer_6">
	<path class="st3" d="M31.6,36.9c0.2,0.6,0.1,1.3-0.2,1.8c-0.2,0.4-0.5,0.7-0.7,1c-1.7,1.9-3.5,3.8-5.2,5.6c-1.9,2-3.7,4.1-5.6,6.1
		c-1.4,1.5-2.8,3-4.2,4.5c-0.5,0.5-1.8,0.5-2.3,0c-1-1-2-2-3-3.1c-0.1-0.1-0.2-0.3-0.1-0.5c0.1-0.8,0.4-1.5,1-2.1
		c5.1-5,10.1-10.1,15.1-15.1c0.4-0.4,0.8-0.7,1.3-0.9c0.6-0.3,1.1-0.2,1.7,0.1c0.3-0.5,0.6-1.1,0.8-1.6c0-0.1,0-0.2-0.1-0.3
		c-1.3-1.5-2.7-3-4.3-4.1c-0.3-0.2-0.7-0.4-1-0.5c-0.2,0-0.4,0-0.5,0.1c-0.3,0.3-0.6,0.6-1,0.9c-0.4,0.4-0.7,0.4-1.1,0
		c-0.6-0.5-1.1-1.1-1.7-1.6c-0.2-0.2-0.4-0.3-0.6-0.4c-0.1-0.1-0.3-0.2-0.4-0.3c-1.3-1.4-2.6-2.7-3.9-4.1c-2-2-3.9-4-5.9-6
		c-0.4-0.4-0.9-0.9-1.3-1.3c-0.4-0.4-0.3-0.7,0.1-1.1c0.4-0.4,0.7-0.4,1.1,0c1.8,1.9,3.6,3.7,5.4,5.6c1.1,1.1,2.2,2.2,3.3,3.4
		c0,0,0.1,0.1,0.1,0.1c0.2,0.2,0.6,0.3,0.8,0.1c0.2-0.2,0.2-0.7,0-0.9c-1.1-1.1-2.1-2.2-3.2-3.3c-1.9-1.9-3.7-3.9-5.6-5.8
		c-0.4-0.4-0.3-0.7,0.1-1.1c0.4-0.4,0.7-0.4,1.1,0c1.4,1.4,2.7,2.8,4.1,4.2c1.6,1.6,3.1,3.2,4.7,4.8c0.1,0.1,0.2,0.2,0.4,0.3
		c0.4,0.2,0.8,0,0.7-0.5c0-0.2-0.1-0.4-0.3-0.6c-1.2-1.3-2.5-2.5-3.7-3.8c-1.7-1.8-3.4-3.5-5.1-5.3c-0.4-0.4-0.3-0.7,0.2-1.2
		c0.4-0.3,0.7-0.3,1.1,0.1c1.3,1.4,2.7,2.8,4,4.2c1.6,1.6,3.1,3.2,4.7,4.8c0.1,0.1,0.1,0.2,0.2,0.2c0.2,0.1,0.5,0.2,0.7,0
		c0.2-0.3,0.1-0.6-0.1-0.8c-0.6-0.6-1.1-1.2-1.7-1.7c-1.7-1.8-3.4-3.5-5.1-5.3c-0.7-0.7-1.3-1.3-2-2c-0.4-0.4-0.4-0.7,0-1.1
		c0.4-0.4,0.8-0.4,1.2,0c1.6,1.6,3.1,3.3,4.7,4.9c0.9,1,1.9,1.9,2.8,2.9c1.9,1.9,3.9,3.8,5.8,5.6c0.1,0,0.1,0.1,0.2,0.2
		c0.5,0.5,0.5,0.7,0,1.2c-0.2,0.2-0.4,0.3-0.3,0.6c0,0.1-0.2,0.4-0.4,0.5c-0.5,0.3-0.6,0.6-0.4,1.1c0.3,0.8,0.8,1.5,1.4,2.2
		c0.8,0.9,1.6,1.7,2.5,2.6C38.5,23,45.1,15.9,51.7,8.7c0.2,0.4,0.5,0.8,0.7,1.2c0.7,1.5,0.6,3.1,0.2,4.6c-0.6,2.4-1.9,4.5-3.5,6.4
		c-3.3,3.8-9.3,10.7-8.6,9.8c-1.1,1.3-2.2,2.5-3.3,3.8c0.5,0.4,1,0.8,1.6,1.2c3.1,2.5,6.2,5,9.2,7.5c2,1.7,4,3.6,5.6,5.7
		c0.8,1,1.5,2.1,1.9,3.4c0.3,0.9,0.4,1.7-0.1,2.6c-0.3,0.5-0.9,0.8-1.5,0.8c-1.2,0.1-2.2-0.4-3.2-0.9c-1.6-0.9-2.9-2.1-4.2-3.3
		c-3.3-3.1-6.1-6.7-9-10.2c-1.4-1.7-2.7-3.3-4.1-5c-0.1-0.2-0.3-0.2-0.5-0.1C32.5,36.5,32,36.7,31.6,36.9z"/>
	<g>
		<g>
			<path class="st4" d="M51.8,9.6c0.2,0.4,0.5,0.8,0.7,1.2c0.7,1.5,0.6,3,0.2,4.5c-0.6,2.4-1.8,4.4-3.5,6.2
				c-2.8,3.2-5.6,6.4-8.4,9.6c-1.1,1.2-3,3.5-3.3,3.7c-0.3,0.2-4.2,1.6-4.2,1.6c-0.4,0.2-0.8,0.4-1.2,0.6c0.2,0.6,0.1,1.2-0.2,1.8
				c-0.2,0.4-0.4,0.7-0.7,1c-1.7,1.8-3.4,3.7-5.1,5.5c-1.8,2-3.7,4-5.5,6c-1.4,1.5-2.7,3-4.1,4.4c-0.2,0.2-0.7,0.4-1.1,0.4
				c-0.4,0-0.9-0.1-1.1-0.4c-1-1-2-2-2.9-3c-0.1-0.1-0.2-0.3-0.1-0.5c0.1-0.8,0.4-1.4,1-2c4.9-4.9,9.9-9.8,14.8-14.8
				c0.4-0.4,0.8-0.7,1.3-0.9c0.2-0.1,0.5-0.2,0.7-0.2c0.3,0,0.7,0.1,1,0.3c0.3-0.5,0.6-1,0.8-1.6l1.6-2.6
				C38.9,23.7,45.3,16.7,51.8,9.6 M52.2,6.4l-1.8,2L38.7,20.9l-7.8,8.5l-0.1,0.1l-0.1,0.2l-1.6,2.6L29,32.4l0,0.1
				c0,0.1-0.1,0.1-0.1,0.2c-0.5,0-1.1,0.1-1.6,0.4c-0.7,0.4-1.3,0.8-1.8,1.2c-2.2,2.2-4.5,4.5-6.7,6.7c-2.7,2.7-5.4,5.4-8.1,8
				c-0.8,0.8-1.3,1.9-1.5,3.1c-0.1,0.7,0.2,1.5,0.7,2.1c1,1,2,2.1,2.9,3c0.6,0.6,1.5,0.9,2.5,0.9c1,0,2-0.4,2.5-1
				c1.4-1.5,2.7-2.9,4.1-4.4l2.3-2.5c1-1.1,2.1-2.3,3.1-3.4c0.7-0.7,1.4-1.5,2-2.2c1-1.1,2-2.2,3.1-3.3c0.4-0.5,0.8-1,1-1.4
				c0.2-0.5,0.4-0.9,0.4-1.4c4.3-1.5,4.5-1.7,4.8-2.1c0.2-0.2,0.6-0.7,2.1-2.4c0.5-0.5,0.9-1.1,1.3-1.5l2.4-2.8c2-2.3,4-4.5,6-6.8
				c2-2.2,3.2-4.5,3.9-7c0.6-2.2,0.4-4.1-0.3-5.8c-0.2-0.4-0.4-0.7-0.6-1c-0.1-0.1-0.1-0.2-0.2-0.4L52.2,6.4L52.2,6.4z"/>
		</g>
		<g>
			<path class="st5" d="M33.5,37.1c1.5,1.8,2.9,3.6,4.4,5.4c3.1,3.8,6.2,7.6,9.8,11.1c1.4,1.4,2.9,2.7,4.6,3.6
				c1.1,0.6,2.2,1.1,3.5,1c0.7-0.1,1.2-0.3,1.6-0.9c0.6-0.9,0.4-1.9,0.2-2.8c-0.4-1.4-1.2-2.6-2-3.7c-1.8-2.3-3.9-4.3-6.1-6.2
				c-3.3-2.8-6.7-5.5-10-8.2c-0.6-0.5-1.1-0.9-1.7-1.4"/>
			<path class="st5" d="M31.9,30.4c-0.9-1-1.8-1.9-2.7-2.9c-0.6-0.7-1.2-1.4-1.5-2.3c-0.2-0.6-0.1-0.9,0.4-1.3
				c0.2-0.1,0.4-0.4,0.4-0.5c0-0.3,0.2-0.5,0.4-0.7c0.5-0.6,0.5-0.8,0-1.3c-0.1-0.1-0.1-0.1-0.2-0.2c-2.1-2.1-4.2-4.1-6.3-6.2
				c-1-1-2-2.1-3.1-3.1c-1.7-1.8-3.4-3.6-5.1-5.3c-0.4-0.5-0.8-0.4-1.3,0c-0.4,0.4-0.5,0.8,0,1.2c0.7,0.7,1.4,1.5,2.1,2.2
				c1.9,1.9,3.7,3.8,5.6,5.8c0.6,0.6,1.2,1.3,1.8,1.9c0.2,0.2,0.3,0.6,0.2,0.9c-0.2,0.3-0.5,0.1-0.7,0c-0.1,0-0.2-0.1-0.2-0.2
				c-1.7-1.7-3.4-3.5-5.1-5.2c-1.5-1.5-2.9-3-4.4-4.5c-0.4-0.4-0.8-0.4-1.1-0.1c-0.6,0.5-0.6,0.9-0.2,1.3c1.8,1.9,3.7,3.8,5.6,5.7
				c1.3,1.4,2.7,2.8,4,4.2c0.1,0.2,0.3,0.4,0.3,0.6c0.1,0.5-0.3,0.8-0.8,0.5c-0.2-0.1-0.3-0.2-0.4-0.3c-1.7-1.8-3.4-3.5-5.1-5.3
				c-1.5-1.5-2.9-3.1-4.4-4.6c-0.4-0.4-0.8-0.4-1.2,0c-0.4,0.4-0.5,0.8-0.1,1.2c2,2.1,4.1,4.2,6.1,6.3c1.2,1.2,2.3,2.4,3.5,3.6
				c0.2,0.2,0.2,0.8,0,1c-0.1,0.1-0.6,0.1-0.8-0.2c0,0-0.1-0.1-0.1-0.1c-1.2-1.2-2.4-2.5-3.6-3.7c-2-2-3.9-4.1-5.9-6.1
				c-0.4-0.4-0.8-0.4-1.2,0c-0.5,0.4-0.5,0.8-0.1,1.2c0.5,0.5,0.9,1,1.4,1.5c2.1,2.2,4.3,4.4,6.4,6.6c1.4,1.5,2.9,3,4.3,4.4
				c0.1,0.1,0.3,0.2,0.4,0.3c0.2,0.1,0.5,0.3,0.6,0.4c0.6,0.6,1.2,1.2,1.8,1.8c0.4,0.4,0.8,0.4,1.2,0c0.4-0.3,0.7-0.7,1.1-1
				c0.1-0.1,0.4-0.2,0.6-0.1c0.4,0.1,0.8,0.3,1.1,0.5c1.8,1.2,3.3,2.9,4.7,4.5"/>
		</g>
	</g>
</g>
</svg>
