<svg id="Layer_3" data-name="Layer 3" xmlns="http://www.w3.org/2000/svg" viewBox="0 0 96 96"><title>JAPKA</title><g style="opacity:0.6"><path d="M62.25,28.4h0a19.23,19.23,0,0,1,8.83,2.2c5.59,2.88,8.81,7.7,9.85,14.75.18,1.23.27,2.48.36,3.69,0,.49.07,1,.11,1.41-.5,13-4.71,23.24-12.88,31.26-2.37,2.33-4.69,3.47-7.09,3.47a9.54,9.54,0,0,1-4-1A21.34,21.34,0,0,0,48.19,82a23.42,23.42,0,0,0-9.8,2.3,9.59,9.59,0,0,1-4,.94,9.3,9.3,0,0,1-6.65-3.14A46.31,46.31,0,0,1,15.37,57.66c-1.44-7.6-.86-13.65,1.84-19A18.59,18.59,0,0,1,33.62,28.41a16.85,16.85,0,0,1,6.72,1.39,18.26,18.26,0,0,0,7.31,1.64A18,18,0,0,0,54.51,30a20.31,20.31,0,0,1,7.74-1.59m0-1.87a22.1,22.1,0,0,0-8.45,1.73,16.09,16.09,0,0,1-6.15,1.31,16.38,16.38,0,0,1-6.57-1.49,18.67,18.67,0,0,0-7.46-1.54A20.46,20.46,0,0,0,15.54,37.8c-3.26,6.48-3.32,13.31-2,20.21,1.84,9.7,5.89,18.35,12.88,25.43a11.12,11.12,0,0,0,8,3.7A11.52,11.52,0,0,0,39.17,86a21.36,21.36,0,0,1,9-2.13,19.34,19.34,0,0,1,8.39,2,11.34,11.34,0,0,0,4.85,1.18c3.06,0,5.83-1.48,8.4-4,9-8.89,13-19.87,13.44-32.64-.14-1.58-.22-3.47-.49-5.33-1-7.1-4.34-12.79-10.85-16.14a21,21,0,0,0-9.68-2.41Z" style="fill:#000"/></g><g style="opacity:0.6"><path d="M60.67,10.8a14.42,14.42,0,0,1-3.56,9.78A14,14,0,0,1,48,25.67c-.27-2.36.65-5.18,2.63-8,2.67-3.74,6.68-6.45,10.09-6.92m1-1.94c-8.13,0-17.86,11.05-15.22,18.74h.28c9.23,0,17.17-9.47,15.59-18.72-.22,0-.43,0-.65,0Z" style="fill:#000"/></g><path d="M84,89.46a1,1,0,0,1-.7-.26l-72-64.65a.85.85,0,0,1,0-1.29,1.06,1.06,0,0,1,1.41,0l72,64.65a.85.85,0,0,1,0,1.29A1,1,0,0,1,84,89.46Z" style="fill:#000"/></svg>
