<?xml version="1.0" encoding="utf-8"?>
<!-- Generator: Adobe Illustrator 23.0.1, SVG Export Plug-In . SVG Version: 6.00 Build 0)  -->
<svg version="1.1" xmlns="http://www.w3.org/2000/svg" xmlns:xlink="http://www.w3.org/1999/xlink" x="0px" y="0px"
	 viewBox="0 0 24 24" style="enable-background:new 0 0 24 24;" xml:space="preserve">
<style type="text/css">
	.st0{fill:#FFFFFF;}
</style>
<g id="Layer_2">
</g>
<g id="Layer_3">
	<title>JAPKA</title>
	<path class="st0" d="M18.3,8.7c0.2-0.1,0.4-0.1,0.6-0.2c-0.4-0.8-1.2-1.4-2.1-1.6c-0.6-0.1-1.1-0.2-1.7-0.2v0
		c-0.8,0-1.7,0.2-2.4,0.5c-0.4,0.2-0.8,0.3-1.2,0.3c-0.5,0-0.9-0.1-1.4-0.3c-0.5-0.2-1-0.4-1.6-0.4c-0.9,0-1.7,0.3-2.4,0.8
		c-0.4,0.3-0.6,0.7-1,1.1c0.4,0,0.6,0,0.8,0c1.1,0.1,2.2,0.3,3.2,1c1,0.8,1.8,1.8,1.3,3.2c-0.2,0.7-0.5,1.3-0.8,1.9
		c-0.2,0.3-0.4,0.7-0.7,1c0.5,0.7,1,1.3,1.4,2c0.4,0.8,0.1,1.5-0.8,1.8c-0.4,0.1-0.9,0.2-1.3,0.3c-0.3,0-0.6,0-0.9,0
		c-0.5,0-0.9,0-1.4,0c0.5,1.1,1.5,1.8,2.7,1.8c0.4,0,0.8-0.1,1.1-0.3c0.6-0.3,1.3-0.5,2-0.5c0.5,0,1.1,0.1,1.6,0.3
		c0.3,0.2,0.7,0.3,1,0.4c0.3,0,0.6,0.1,0.9,0.1c0.2,0,0.4,0,0.6-0.1c1.2-0.5,1.9-1.5,2.7-2.5c-0.6,0-1.1-0.1-1.5-0.1
		c-2.9-0.3-4.4-2.5-3.6-5.3C14,11.1,15.7,9.5,18.3,8.7z M13.2,12.4L13.2,12.4C13.2,12.4,13.2,12.4,13.2,12.4L13.2,12.4z"/>
	<path class="st0" d="M15.2,2.3L15.2,2.3c-2.1,0-4.2,2.2-4.1,4.3c0,0.3,0.1,0.5,0.4,0.5c0,0,0.1,0,0.2,0C13.8,6.7,15.5,4.5,15.2,2.3
		z"/>
</g>
</svg>
