<?xml version="1.0" encoding="utf-8"?>
<!-- Generator: Adobe Illustrator 23.0.1, SVG Export Plug-In . SVG Version: 6.00 Build 0)  -->
<svg version="1.1" id="Layer_1" xmlns="http://www.w3.org/2000/svg" xmlns:xlink="http://www.w3.org/1999/xlink" x="0px" y="0px"
	 viewBox="0 0 24 24" style="enable-background:new 0 0 24 24;" xml:space="preserve">
<style type="text/css">
	.st0{display:none;}
	.st1{display:inline;}
	.st2{display:inline;opacity:0.24;fill:#FFFFFF;enable-background:new    ;}
	.st3{display:inline;fill:none;stroke:#FFFFFF;stroke-width:0.693;stroke-miterlimit:10;}
	.st4{fill:#FFFFFF;}
	.st5{opacity:0.6;fill:#FFFFFF;enable-background:new    ;}
	.st6{fill:#FFFFFF;enable-background:new    ;}
	.st7{display:none;fill:#FFFFFF;}
</style>
<g class="st0">
	<rect x="-28.1" y="-92" class="st1" width="96.1" height="96.1"/>
</g>
<g id="Layer_4" class="st0">
	<rect x="-6" y="-69.8" class="st2" width="52.1" height="52.1"/>
</g>
<g id="Layer_6" class="st0">
	<path class="st3" d="M19.6-39.1c0.2,0.6,0.1,1.3-0.2,1.8c-0.2,0.4-0.5,0.7-0.7,1c-1.7,1.9-3.5,3.8-5.2,5.6c-1.9,2-3.7,4.1-5.6,6.1
		c-1.4,1.5-2.8,3-4.2,4.5c-0.5,0.5-1.8,0.5-2.3,0c-1-1-2-2-3-3.1c-0.1-0.1-0.2-0.3-0.1-0.5c0.1-0.8,0.4-1.5,1-2.1
		c5.1-5,10.1-10.1,15.1-15.1c0.4-0.4,0.8-0.7,1.3-0.9c0.6-0.3,1.1-0.2,1.7,0.1c0.3-0.5,0.6-1.1,0.8-1.6c0-0.1,0-0.2-0.1-0.3
		c-1.3-1.5-2.7-3-4.3-4.1c-0.3-0.2-0.7-0.4-1-0.5c-0.2,0-0.4,0-0.5,0.1c-0.3,0.3-0.6,0.6-1,0.9c-0.4,0.4-0.7,0.4-1.1,0
		c-0.6-0.5-1.1-1.1-1.7-1.6c-0.2-0.2-0.4-0.3-0.6-0.4c-0.1-0.1-0.3-0.2-0.4-0.3c-1.3-1.4-2.6-2.7-3.9-4.1c-2-2-3.9-4-5.9-6
		c-0.4-0.4-0.9-0.9-1.3-1.3C-4-61.3-3.9-61.6-3.5-62c0.4-0.4,0.7-0.4,1.1,0c1.8,1.9,3.6,3.7,5.4,5.6c1.1,1.1,2.2,2.2,3.3,3.4
		l0.1,0.1c0.2,0.2,0.6,0.3,0.8,0.1c0.2-0.2,0.2-0.7,0-0.9C6.1-54.8,5.1-55.9,4-57c-1.9-1.9-3.7-3.9-5.6-5.8
		c-0.4-0.4-0.3-0.7,0.1-1.1c0.4-0.4,0.7-0.4,1.1,0c1.4,1.4,2.7,2.8,4.1,4.2c1.6,1.6,3.1,3.2,4.7,4.8c0.1,0.1,0.2,0.2,0.4,0.3
		c0.4,0.2,0.8,0,0.7-0.5c0-0.2-0.1-0.4-0.3-0.6C8-57,6.7-58.2,5.5-59.5c-1.7-1.8-3.4-3.5-5.1-5.3C0-65.2,0.1-65.5,0.6-66
		c0.4-0.3,0.7-0.3,1.1,0.1c1.3,1.4,2.7,2.8,4,4.2c1.6,1.6,3.1,3.2,4.7,4.8c0.1,0.1,0.1,0.2,0.2,0.2c0.2,0.1,0.5,0.2,0.7,0
		c0.2-0.3,0.1-0.6-0.1-0.8c-0.6-0.6-1.1-1.2-1.7-1.7c-1.7-1.8-3.4-3.5-5.1-5.3c-0.7-0.7-1.3-1.3-2-2c-0.4-0.4-0.4-0.7,0-1.1
		c0.4-0.4,0.8-0.4,1.2,0c1.6,1.6,3.1,3.3,4.7,4.9c0.9,1,1.9,1.9,2.8,2.9c1.9,1.9,3.9,3.8,5.8,5.6c0.1,0,0.1,0.1,0.2,0.2
		c0.5,0.5,0.5,0.7,0,1.2c-0.2,0.2-0.4,0.3-0.3,0.6c0,0.1-0.2,0.4-0.4,0.5c-0.5,0.3-0.6,0.6-0.4,1.1c0.3,0.8,0.8,1.5,1.4,2.2
		c0.8,0.9,1.6,1.7,2.5,2.6c6.6-7.2,13.2-14.3,19.8-21.5c0.2,0.4,0.5,0.8,0.7,1.2c0.7,1.5,0.6,3.1,0.2,4.6c-0.6,2.4-1.9,4.5-3.5,6.4
		c-3.3,3.8-9.3,10.7-8.6,9.8c-1.1,1.3-2.2,2.5-3.3,3.8c0.5,0.4,1,0.8,1.6,1.2c3.1,2.5,6.2,5,9.2,7.5c2,1.7,4,3.6,5.6,5.7
		c0.8,1,1.5,2.1,1.9,3.4c0.3,0.9,0.4,1.7-0.1,2.6c-0.3,0.5-0.9,0.8-1.5,0.8c-1.2,0.1-2.2-0.4-3.2-0.9c-1.6-0.9-2.9-2.1-4.2-3.3
		c-3.3-3.1-6.1-6.7-9-10.2c-1.4-1.7-2.7-3.3-4.1-5c-0.1-0.2-0.3-0.2-0.5-0.1C20.5-39.5,20-39.3,19.6-39.1z"/>
	<g class="st1">
		<g>
			<path class="st4" d="M39.8-66.4c0.2,0.4,0.5,0.8,0.7,1.2c0.7,1.5,0.6,3,0.2,4.5c-0.6,2.4-1.8,4.4-3.5,6.2
				c-2.8,3.2-5.6,6.4-8.4,9.6c-1.1,1.2-3,3.5-3.3,3.7s-4.2,1.6-4.2,1.6c-0.4,0.2-0.8,0.4-1.2,0.6c0.2,0.6,0.1,1.2-0.2,1.8
				c-0.2,0.4-0.4,0.7-0.7,1c-1.7,1.8-3.4,3.7-5.1,5.5c-1.8,2-3.7,4-5.5,6c-1.4,1.5-2.7,3-4.1,4.4c-0.2,0.2-0.7,0.4-1.1,0.4
				c-0.4,0-0.9-0.1-1.1-0.4c-1-1-2-2-2.9-3c-0.1-0.1-0.2-0.3-0.1-0.5c0.1-0.8,0.4-1.4,1-2c4.9-4.9,9.9-9.8,14.8-14.8
				c0.4-0.4,0.8-0.7,1.3-0.9c0.2-0.1,0.5-0.2,0.7-0.2c0.3,0,0.7,0.1,1,0.3c0.3-0.5,0.6-1,0.8-1.6l1.6-2.6
				C26.9-52.3,33.3-59.3,39.8-66.4 M40.2-69.6l-1.8,2L26.7-55.1l-7.8,8.5l-0.1,0.1l-0.1,0.2l-1.6,2.6L17-43.6v0.1
				c0,0.1-0.1,0.1-0.1,0.2c-0.5,0-1.1,0.1-1.6,0.4c-0.7,0.4-1.3,0.8-1.8,1.2C11.3-39.5,9-37.2,6.8-35c-2.7,2.7-5.4,5.4-8.1,8
				c-0.8,0.8-1.3,1.9-1.5,3.1c-0.1,0.7,0.2,1.5,0.7,2.1c1,1,2,2.1,2.9,3c0.6,0.6,1.5,0.9,2.5,0.9s2-0.4,2.5-1
				c1.4-1.5,2.7-2.9,4.1-4.4l2.3-2.5c1-1.1,2.1-2.3,3.1-3.4c0.7-0.7,1.4-1.5,2-2.2c1-1.1,2-2.2,3.1-3.3c0.4-0.5,0.8-1,1-1.4
				c0.2-0.5,0.4-0.9,0.4-1.4c4.3-1.5,4.5-1.7,4.8-2.1c0.2-0.2,0.6-0.7,2.1-2.4c0.5-0.5,0.9-1.1,1.3-1.5l2.4-2.8c2-2.3,4-4.5,6-6.8
				c2-2.2,3.2-4.5,3.9-7c0.6-2.2,0.4-4.1-0.3-5.8c-0.2-0.4-0.4-0.7-0.6-1c-0.1-0.1-0.1-0.2-0.2-0.4L40.2-69.6L40.2-69.6z"/>
		</g>
		<g>
			<path class="st5" d="M21.5-38.9c1.5,1.8,2.9,3.6,4.4,5.4c3.1,3.8,6.2,7.6,9.8,11.1c1.4,1.4,2.9,2.7,4.6,3.6
				c1.1,0.6,2.2,1.1,3.5,1c0.7-0.1,1.2-0.3,1.6-0.9c0.6-0.9,0.4-1.9,0.2-2.8c-0.4-1.4-1.2-2.6-2-3.7c-1.8-2.3-3.9-4.3-6.1-6.2
				c-3.3-2.8-6.7-5.5-10-8.2c-0.6-0.5-1.1-0.9-1.7-1.4"/>
			<path class="st5" d="M19.9-45.6c-0.9-1-1.8-1.9-2.7-2.9c-0.6-0.7-1.2-1.4-1.5-2.3c-0.2-0.6-0.1-0.9,0.4-1.3
				c0.2-0.1,0.4-0.4,0.4-0.5c0-0.3,0.2-0.5,0.4-0.7c0.5-0.6,0.5-0.8,0-1.3c-0.1-0.1-0.1-0.1-0.2-0.2c-2.1-2.1-4.2-4.1-6.3-6.2
				c-1-1-2-2.1-3.1-3.1c-1.7-1.8-3.4-3.6-5.1-5.3c-0.4-0.5-0.8-0.4-1.3,0c-0.4,0.4-0.5,0.8,0,1.2C1.6-67.5,2.3-66.7,3-66
				c1.9,1.9,3.7,3.8,5.6,5.8c0.6,0.6,1.2,1.3,1.8,1.9c0.2,0.2,0.3,0.6,0.2,0.9c-0.2,0.3-0.5,0.1-0.7,0c-0.1,0-0.2-0.1-0.2-0.2
				c-1.7-1.7-3.4-3.5-5.1-5.2c-1.5-1.5-2.9-3-4.4-4.5c-0.4-0.4-0.8-0.4-1.1-0.1c-0.6,0.5-0.6,0.9-0.2,1.3c1.8,1.9,3.7,3.8,5.6,5.7
				c1.3,1.4,2.7,2.8,4,4.2c0.1,0.2,0.3,0.4,0.3,0.6c0.1,0.5-0.3,0.8-0.8,0.5c-0.2-0.1-0.3-0.2-0.4-0.3c-1.7-1.8-3.4-3.5-5.1-5.3
				c-1.5-1.5-2.9-3.1-4.4-4.6c-0.4-0.4-0.8-0.4-1.2,0c-0.4,0.4-0.5,0.8-0.1,1.2c2,2.1,4.1,4.2,6.1,6.3c1.2,1.2,2.3,2.4,3.5,3.6
				c0.2,0.2,0.2,0.8,0,1c-0.1,0.1-0.6,0.1-0.8-0.2l-0.1-0.1c-1.2-1.2-2.4-2.5-3.6-3.7c-2-2-3.9-4.1-5.9-6.1c-0.4-0.4-0.8-0.4-1.2,0
				c-0.5,0.4-0.5,0.8-0.1,1.2c0.5,0.5,0.9,1,1.4,1.5c2.1,2.2,4.3,4.4,6.4,6.6c1.4,1.5,2.9,3,4.3,4.4c0.1,0.1,0.3,0.2,0.4,0.3
				c0.2,0.1,0.5,0.3,0.6,0.4c0.6,0.6,1.2,1.2,1.8,1.8c0.4,0.4,0.8,0.4,1.2,0c0.4-0.3,0.7-0.7,1.1-1c0.1-0.1,0.4-0.2,0.6-0.1
				c0.4,0.1,0.8,0.3,1.1,0.5c1.8,1.2,3.3,2.9,4.7,4.5"/>
		</g>
	</g>
</g>
<path class="st6" d="M2.1,18.8c1.2-2.1,2.3-4.2,3.5-6.3c1.5-2.6,3.1-5.2,4.5-7.9C10.6,4,11,3.4,11.8,3.2c0.2,0,0.3,0,0.4,0
	c0.8,0.2,1.2,0.7,1.6,1.4c2.6,4.5,5.2,9,7.8,13.5c0.5,0.9,0.3,1.9-0.5,2.4c-0.2,0.1-0.5,0.2-0.8,0.2c-5.5,0-11,0-16.6,0
	c-0.7,0-1.3-0.4-1.5-1.1c0-0.1-0.1-0.2-0.2-0.3C2.1,19.2,2.1,19,2.1,18.8z M12,19.6c2.6,0,5.3,0,7.9,0c0.8,0,1-0.3,0.6-1
	c-2.6-4.5-5.2-9.1-7.9-13.6c-0.1-0.2-0.2-0.3-0.3-0.4c-0.2-0.2-0.5-0.2-0.8,0c-0.1,0.1-0.2,0.2-0.2,0.3c-2.1,3.7-4.3,7.4-6.4,11.2
	c-0.5,0.9-1,1.8-1.5,2.6c-0.2,0.4,0,0.8,0.5,0.8c0.1,0,0.2,0,0.3,0C6.9,19.6,9.4,19.6,12,19.6z"/>
<path class="st7" d="M12,3.9c-0.1,0-0.9,0.6-0.9,0.6L2.9,19L3.6,20h17l0.6-1.1L12.8,3.9H12z"/>
<g>
	<path class="st4" d="M5.1,18.1v-0.6c0,0,0.1,0,0.2,0c0.2,0,0.5,0,0.7,0c0.4,0,0.8,0,1.2,0c1.3,0,2.5-0.5,3.5-1.5
		c0.4-0.4,0.9-0.6,1.4-0.6c0.3,0,0.7,0.1,1,0.3c0.1,0.1,0.2,0.2,0.3,0.3c1,1,2.3,1.6,3.8,1.6c0.3,0,0.5,0,0.7,0h1c0,0,0.1,0,0.2,0
		v0.6H5.1z"/>
	<path class="st4" d="M12.1,15.5c0.3,0,0.6,0.1,0.9,0.3c0.1,0.1,0.2,0.2,0.3,0.3c1.1,1.1,2.4,1.6,3.9,1.6h0c0.2,0,0.5,0,0.6,0
		c0.3,0,0.6,0,0.9,0v0.1H5.3v-0.1c0.2,0,0.4,0,0.6,0c0.4,0,0.8,0,1.2,0c1.4,0,2.6-0.6,3.7-1.6C11.2,15.7,11.7,15.5,12.1,15.5
		 M12.1,15.1c-0.6,0-1.1,0.2-1.6,0.7c-0.9,0.9-2,1.4-3.4,1.4c-0.6,0-1.3,0-1.9,0c-0.1,0-0.3,0-0.4,0c0,0.4,0,0.7,0,1.1
		c4.8,0,9.6,0,14.5,0c0-0.3,0-0.7,0-1.1c-0.2,0-0.3,0-0.4,0c-0.3,0-0.6,0-1,0c-0.2,0-0.5,0-0.7,0h0c-1.4,0-2.6-0.5-3.6-1.5
		c-0.1-0.1-0.2-0.2-0.3-0.3C12.9,15.2,12.5,15.1,12.1,15.1L12.1,15.1z"/>
</g>
</svg>
