<?xml version="1.0" encoding="utf-8"?>
<!-- Generator: Adobe Illustrator 22.1.0, SVG Export Plug-In . SVG Version: 6.00 Build 0)  -->
<svg version="1.1" xmlns="http://www.w3.org/2000/svg" xmlns:xlink="http://www.w3.org/1999/xlink" x="0px" y="0px"
	 viewBox="0 0 158.5 179.9" style="enable-background:new 0 0 158.5 179.9;" xml:space="preserve">
<style type="text/css">
	.st0{display:none;opacity:0.5;}
	.st1{display:inline;}
	.st2{fill:#FFFFFF;}
	.st3{opacity:0.6;fill:#FFFFFF;}
	.st4{display:inline;opacity:0.6;fill:#FFFFFF;}
</style>
<g id="Layer_2">
	<rect width="158.5" height="179.9"/>
</g>
<g id="Layer_3">
	<g class="st0">
		<g class="st1">
			<path class="st2" d="M93.3,171.8c-0.7,2.7-1.4,5.1-2.1,7.5c-2.1,7.5-9.8,13.2-17.5,12.9c-1,0-1.9-0.4-2.9-0.7
				c-23.4-6.5-46.7-13-70.1-19.5c-6.8-1.9-12-9.9-11.4-17.1c0.3-3.4,1.1-6.6,2-9.8C6.5,90.8,21.7,36.3,36.6-18.2
				c2.4-8.6,8.8-14.1,18.6-14.3c1,0,1.9,0.3,2.9,0.6c23,6.4,45.9,12.8,68.9,19.1c5.5,1.5,12.7,8.5,12.6,16.3c0,1.6-0.4,3-0.8,4.5
				C129.9,40,121,72,112.2,104.1 M104.9,106.4c8-29.2,16.2-58.4,24.3-87.6c0.2-0.8,0.4-1.7,0.7-2.4c0.7-1.8-0.1-2.6-1.8-2.9
				c-0.7-0.1-1.4-0.4-2-0.6C99.5,5.5,73-1.8,46.6-9.2c-0.8-0.2-1.6-0.4-2.4-0.7c-1.3-0.4-2.2-0.1-2.5,1.3c-0.3,1.1-0.6,2.2-0.9,3.3
				C33.9,19,27.2,43.3,20.4,67.6C13.7,92,6.9,116.5,0.1,140.9c-1.4,5.1-1.8,4.5,3.2,5.9c8.5,2.4,17.1,4.8,25.7,7.1
				c18.2,5,36.4,10.1,54.6,15.1c1.2,0.3,2.7,1.6,3.8,0 M37.6,174.8c4.1,1.2,6.9-0.2,8.1-4.1c1.3-4.3-0.1-7.2-4.2-8.4
				c-4.1-1.2-6.9,0.2-8.1,4.1C32.1,170.7,33.5,173.6,37.6,174.8z M89.6-8.6C89.6-8.6,89.6-8.6,89.6-8.6c-2.2-0.6-4.3-1.2-6.5-1.8
				c-0.5-0.1-1.1-0.1-1.4,0.5c-0.3,0.7,0.2,1.1,0.7,1.2c4.2,1.2,8.4,2.4,12.6,3.5c0.6,0.1,1.2,0,1.2-0.8c0.1-0.6-0.4-1-1-1.1
				C93.4-7.6,91.5-8.1,89.6-8.6z"/>
			<g>
				<path class="st2" d="M62.6,4.2L62.6,4.2c0.6,0,1.2,0,1.8,0.1c1,0.1,2.1,0.3,3.1,0.4c3,0.3,6.2,0.7,9.1,1.6
					c2.2,0.6,4.4,1.2,6.6,1.8c5.8,1.6,11.8,3.2,17.4,5.8c4.6,2.2,9,4.5,11.4,9.2c1.3,2.5,1.6,4.8,0.9,7.4c-2.4,8.3-4.7,16.8-7,25
					c-2.6,9.4-5.3,19.2-8.1,28.8c-1.6,5.4-3.7,9.3-6.9,12.1c-0.8,0.7-1.7,1.5-2.8,2c-6.5,3-12.7,4.4-19,4.4c-0.3,0-0.6,0-1,0
					c-1.1,0-1.3-0.1-1.2-1.2c0-4.2-0.4-4.7-4.3-5.9c-1.3-0.4-2.7-0.8-4-1.1l-0.6-0.2c-1.5-0.4-2.4-0.7-3.3-0.7
					c-1.8,0-2.6,1.1-4.4,3.6c-0.3,0.4-0.5,0.5-0.6,0.5c0,0-0.1,0-0.2-0.1c-6-3.6-13.4-8.9-16.9-17.8c-1.8-4.4-0.9-9.1,0.1-13
					c1.6-6.3,3.4-12.8,5.2-19c0.7-2.6,1.5-5.3,2.2-7.9c0.7-2.5,1.4-5.1,2.1-7.6c1.7-6.2,3.5-12.6,5.2-18.9c0.8-3.1,2.4-5.1,5-6.4
					C55.4,5.8,58.9,4.2,62.6,4.2 M88.1,76.4c3.5,0,5.7-1.9,6.8-5.8c2.9-10.2,6-21.4,9.5-34.2c1.1-4.2,0.4-5.9-3.4-8
					c-1.2-0.7-2.6-1-3.8-1.4c-4.2-1.2-8.5-2.4-12.6-3.5l-4.5-1.2L79.2,22c-1.5-0.4-3.1-0.9-4.6-1.3c-4.2-1.2-8.5-2.4-12.8-3.5
					c-1.2-0.3-2.3-0.5-3.2-0.5c-3.3,0-5.4,1.8-6.5,5.5c-3.2,11.3-6.4,22.8-9.5,34.2c-1.1,4.2,0.3,7.1,4.4,8.9
					c0.9,0.4,1.8,0.6,2.7,0.9c0.2,0.1,0.4,0.1,0.6,0.2c8.7,2.4,17.4,4.8,26,7.2c0.9,0.2,1.7,0.5,2.6,0.7c2.1,0.6,4.2,1.2,6.4,1.7
					C86.4,76.3,87.3,76.4,88.1,76.4 M56.9,92c1.9,0,3.3-1.1,4-3.4c0.9-2.7,1.8-5.7,2.4-8.6c0.7-3.6-0.9-6.3-4.6-7.6
					c-1.5-0.5-3-0.9-4.5-1.3c-0.7-0.2-1.4-0.4-2.1-0.6c-0.7-0.2-1.5-0.4-2.2-0.6c-1.7-0.4-3.4-0.9-5-1.4c-0.6-0.2-1.2-0.3-1.7-0.3
					c-1.7,0-3,1-3.8,3c-0.5,1.3-0.7,2.5-0.6,3.8c0.7,6.5,11.4,16.7,17.9,17C56.8,92,56.8,92,56.9,92 M71.8,95.1
					c4.7,0,9.2-1,13.2-3.1c2.4-1.2,4.2-3.5,4.8-6.1c0.7-3.2-0.3-4.9-3.4-5.8c-1.6-0.5-3.2-0.9-4.7-1.3c-0.6-0.2-1.2-0.3-1.8-0.5
					c-0.7-0.2-1.4-0.4-2.1-0.6c-1.6-0.5-3.2-0.9-4.8-1.3c-0.7-0.2-1.5-0.3-2.1-0.3c-2.8,0-4.9,1.5-5.8,4.2c-0.9,2.6-1.7,5.5-2.5,9.1
					c-0.3,1.4-0.2,2.7,0.5,3.6c0.6,0.9,1.5,1.4,2.8,1.7C67.8,95,69.8,95.1,71.8,95.1 M62.6,3.2c-3.8,0-7.2,1.4-10.5,3
					c-2.9,1.4-4.7,3.7-5.5,7c-2.3,8.9-4.8,17.7-7.3,26.5c-2.5,9-5.1,17.9-7.4,26.9c-1.2,4.5-1.8,9.1-0.1,13.7
					c3.3,8.4,9.9,13.8,17.4,18.3c0.2,0.1,0.5,0.2,0.7,0.2c0.5,0,1-0.4,1.4-0.9c1.7-2.4,2.3-3.2,3.6-3.2c0.7,0,1.6,0.2,3,0.6
					c1.5,0.4,3,0.8,4.5,1.2c3.5,1.1,3.7,1.2,3.6,5c0,1.7,0.6,2.2,2.2,2.2c0.3,0,0.7,0,1,0c6.8,0,13.2-1.7,19.4-4.5
					c1.2-0.5,2.1-1.3,3.1-2.2c3.8-3.4,5.9-7.9,7.2-12.6c5.1-17.9,10-35.9,15-53.8c0.8-3,0.4-5.5-1-8.1c-2.6-4.9-7.1-7.4-11.9-9.6
					c-7.7-3.6-16-5.3-24.1-7.7c-4.1-1.2-8.3-1.4-12.5-2C63.9,3.3,63.2,3.2,62.6,3.2L62.6,3.2z M88.1,75.4c-0.7,0-1.6-0.1-2.4-0.3
					c-3-0.7-6-1.6-9-2.4c-8.7-2.4-17.4-4.8-26-7.2c-1.1-0.3-2.2-0.6-3.2-1c-3.6-1.6-4.9-3.9-3.9-7.7c3.1-11.4,6.2-22.8,9.5-34.2
					c0.9-3.2,2.7-4.8,5.5-4.8c0.9,0,1.9,0.1,3,0.4c6.1,1.6,12.2,3.4,18.3,5c0,0,0,0,0,0c5.7,1.6,11.4,3.1,17.1,4.8
					c1.2,0.3,2.5,0.7,3.5,1.3c3.4,1.9,4,3.1,3,6.9c-3.1,11.4-6.3,22.8-9.5,34.2C93,73.8,91.1,75.4,88.1,75.4L88.1,75.4z M56.9,91
					c-0.1,0-0.1,0-0.2,0c-6-0.3-16.3-10.1-17-16.2c-0.1-1.2,0.1-2.3,0.5-3.3c0.6-1.4,1.5-2.4,2.9-2.4c0.4,0,0.9,0.1,1.4,0.2
					c2.4,0.8,4.9,1.4,7.3,2.1c2.2,0.6,4.4,1.1,6.5,1.8c3.1,1.1,4.6,3.3,4,6.4c-0.6,2.9-1.5,5.7-2.4,8.5C59.5,89.8,58.7,91,56.9,91
					L56.9,91z M71.8,94.1c-2,0-3.9-0.2-5.9-0.5c-2.4-0.4-2.9-2.1-2.5-4.1c0.7-3,1.4-6,2.5-8.9c0.8-2.4,2.6-3.5,4.9-3.5
					c0.6,0,1.2,0.1,1.9,0.2c2.3,0.5,4.6,1.3,6.9,1.9c2.2,0.6,4.4,1.2,6.5,1.8c2.7,0.8,3.3,2,2.7,4.7c-0.6,2.5-2.2,4.4-4.2,5.5
					C80.5,93.2,76.2,94.1,71.8,94.1L71.8,94.1z"/>
			</g>
			<path class="st3" d="M45,126.5c2.6-9.4,5-18.2,7.5-27c0.8-2.7,1.2-3,3.9-2.2c10,2.8,8.6,1.2,6.2,10.3c-1.9,7.2-4,14.3-6.1,22
				c-2.6-4.1-1.1-8.6-2.7-12.6C50.5,119.5,49.4,123.9,45,126.5z"/>
			<path class="st2" d="M52.8,120.9c-0.1,3.4,0.4,6.9,2.3,10.1c0.9,1.6,1.8,3.1,2.1,5c1,5.4-1.6,9.3-7.6,10.6
				c-3.8,0.8-8.8-1.2-10.3-6.5c-1.5-5.4-0.7-7.2,5.8-11.5C48.4,126.5,51,124,52.8,120.9z"/>
			<path class="st3" d="M59,83.3c-0.3,0.9-0.5,1.9-0.8,2.8c-0.8,2.6-1.8,3.2-4.2,1.7c-3.7-2.4-7.5-4.7-10.2-8.4
				c-0.7-1-1.2-2.2-1.5-3.4c-0.8-3.9,0-4.7,3.9-3.7c3.2,0.9,6.5,1.8,9.7,2.7c4.4,1.3,4.7,1.9,3.6,6.3C59.4,82,59.2,82.6,59,83.3z"/>
			<path class="st3" d="M78.8,81.4c2.2,0.6,4.3,1.2,6.5,1.8c1.5,0.4,1.7,1.3,1.1,2.5c-1,2.1-2.7,3.5-4.8,4.4
				c-4.1,1.7-8.4,1.6-12.6,1.9C66,92.1,65.4,91,66.1,88c0.5-1.8,0.9-3.5,1.5-5.3c1-3.4,1.9-3.9,5.6-3C75.1,80.3,76.9,80.8,78.8,81.4
				C78.8,81.4,78.8,81.4,78.8,81.4z"/>
		</g>
		<g>
			<g class="st1">
				<path d="M114.4,167.5c-3,0-6.1-0.4-9-1.2c-8.7-2.4-15.9-8-20.3-15.9c-4.4-7.8-5.5-16.9-3.1-25.6c4-14.5,17.4-24.7,32.4-24.7
					c3,0,6.1,0.4,9,1.2c17.9,5,28.4,23.6,23.4,41.4C142.8,157.3,129.4,167.5,114.4,167.5z"/>
				<g>
					<path class="st2" d="M114.4,103.3L114.4,103.3c2.8,0,5.5,0.4,8.2,1.1c7.9,2.2,14.4,7.3,18.4,14.4c4,7.1,5,15.3,2.8,23.2
						c-3.7,13.2-15.8,22.4-29.4,22.4c-2.8,0-5.5-0.4-8.2-1.1c-7.9-2.2-14.4-7.3-18.4-14.4c-4-7.1-5-15.3-2.8-23.2
						C88.6,112.5,100.7,103.3,114.4,103.3 M114.4,97c-16.1,0-30.9,10.7-35.4,26.9c-5.4,19.6,6,39.8,25.6,45.3
						c3.3,0.9,6.6,1.3,9.9,1.3c16.1,0,30.9-10.7,35.4-26.9c5.4-19.6-6-39.8-25.6-45.3C120.9,97.5,117.6,97,114.4,97L114.4,97z"/>
				</g>
			</g>
			<path class="st4" d="M128.7,131.1l-6-1.7l1.7-6c0.9-3.3-1-6.7-4.3-7.7c-3.3-0.9-6.7,1-7.7,4.3l-1.7,6l-6-1.7
				c-3.3-0.9-6.7,1-7.7,4.3c-0.9,3.3,1,6.7,4.3,7.7l6,1.7l-1.7,6c-0.9,3.3,1,6.7,4.3,7.7c3.3,0.9,6.7-1,7.7-4.3l1.7-6l6,1.7
				c3.3,0.9,6.7-1,7.7-4.3C134,135.5,132,132.1,128.7,131.1z"/>
		</g>
	</g>
	<g>
		<g>
			<g>
				<g>
					<path class="st2" d="M113,102.4L113,102.4c2.8,0,5.5,0.4,8.2,1.1c7.9,2.2,14.4,7.3,18.4,14.4c4,7.1,5,15.3,2.8,23.2
						c-3.7,13.2-15.8,22.4-29.4,22.4c-2.8,0-5.5-0.4-8.2-1.1c-7.9-2.2-14.4-7.3-18.4-14.4c-4-7.1-5-15.3-2.8-23.2
						C87.3,111.6,99.4,102.4,113,102.4 M113,96.2c-16.1,0-30.9,10.7-35.4,26.9c-5.4,19.6,6,39.8,25.6,45.3c3.3,0.9,6.6,1.3,9.9,1.3
						c16.1,0,30.9-10.7,35.4-26.9c5.4-19.6-6-39.8-25.6-45.3C119.6,96.6,116.3,96.2,113,96.2L113,96.2z"/>
				</g>
			</g>
			<path class="st3" d="M127.4,130.3l-6-1.7l1.7-6c0.9-3.3-1-6.7-4.3-7.7c-3.3-0.9-6.7,1-7.7,4.3l-1.7,6l-6-1.7
				c-3.3-0.9-6.7,1-7.7,4.3c-0.9,3.3,1,6.7,4.3,7.7l6,1.7l-1.7,6c-0.9,3.3,1,6.7,4.3,7.7c3.3,0.9,6.7-1,7.7-4.3l1.7-6l6,1.7
				c3.3,0.9,6.7-1,7.7-4.3C132.6,134.7,130.7,131.2,127.4,130.3z"/>
		</g>
		<path class="st2" d="M89.2,160.7l-2.3,8.1c-1.1,1.7-2.6,0.4-3.8,0c-18.2-5-36.4-10.1-54.6-15.1c-8.6-2.4-17.1-4.7-25.7-7.1
			c-5-1.4-4.6-0.8-3.2-5.9c6.8-24.4,13.6-48.9,20.3-73.3c6.7-24.3,13.5-48.6,20.2-72.9c0.3-1.1,0.7-2.2,0.9-3.3
			c0.3-1.4,1.2-1.7,2.5-1.3c0.8,0.3,1.6,0.4,2.4,0.7c26.5,7.3,52.9,14.7,79.4,22c0.7,0.2,1.3,0.4,2,0.6c1.7,0.3,2.5,1.1,1.8,2.9
			c-0.3,0.8-0.5,1.6-0.7,2.4c-7.3,26.3-14.6,52.6-21.9,78.9c2.2-0.4,4.5-0.7,6.8-0.7c8.2-29.7,16.5-59.4,24.7-89.1
			c0.4-1.4,0.8-2.9,0.8-4.5c0.1-7.9-7.2-14.8-12.6-16.3c-23-6.3-45.9-12.7-68.9-19.1c-0.9-0.3-1.9-0.6-2.9-0.6
			c-9.8,0.3-16.2,5.7-18.6,14.3C21.3,36.1,6.1,90.5-9,145c-0.9,3.2-1.7,6.4-2,9.8c-0.5,7.1,4.6,15.2,11.4,17.1
			c23.4,6.5,46.7,13,70.1,19.5c0.9,0.3,1.9,0.6,2.9,0.7c7.7,0.3,15.4-5.5,17.5-12.9c0.7-2.4,1.3-4.9,2.1-7.5l1.8-6.6
			C92.8,163.7,91,162.3,89.2,160.7z M81.4-10.1c0.2-0.6,0.8-0.7,1.4-0.5c2.2,0.6,4.3,1.2,6.5,1.8c0,0,0,0,0,0c1.9,0.5,3.8,1,5.7,1.6
			c0.5,0.2,1,0.5,1,1.1c-0.1,0.7-0.7,0.9-1.2,0.8c-4.2-1.1-8.4-2.3-12.6-3.5C81.6-9,81.1-9.4,81.4-10.1z M45.4,170.5
			c-1.2,3.9-4,5.3-8.1,4.1c-4.1-1.2-5.6-4.1-4.2-8.4c1.2-3.9,4-5.3,8.1-4.1C45.3,163.3,46.7,166.2,45.4,170.5z"/>
		<g>
			<path class="st2" d="M62.6,4.2L62.6,4.2c0.6,0,1.2,0,1.8,0.1c1,0.1,2.1,0.3,3.1,0.4c3,0.3,6.2,0.7,9.1,1.6
				c2.2,0.6,4.4,1.2,6.6,1.8c5.8,1.6,11.8,3.2,17.4,5.8c4.6,2.2,9,4.5,11.4,9.2c1.3,2.5,1.6,4.8,0.9,7.4c-2.4,8.3-4.7,16.8-7,25
				c-2.6,9.4-5.3,19.2-8.1,28.8c-1.6,5.4-3.7,9.3-6.9,12.1c-0.8,0.7-1.7,1.5-2.8,2c-6.5,3-12.7,4.4-19,4.4c-0.3,0-0.6,0-1,0
				c-1.1,0-1.3-0.1-1.2-1.2c0-4.2-0.4-4.7-4.3-5.9c-1.3-0.4-2.7-0.8-4-1.1l-0.6-0.2c-1.5-0.4-2.4-0.7-3.3-0.7
				c-1.8,0-2.6,1.1-4.4,3.6c-0.3,0.4-0.5,0.5-0.6,0.5c0,0-0.1,0-0.2-0.1c-6-3.6-13.4-8.9-16.9-17.8c-1.8-4.4-0.9-9.1,0.1-13
				c1.6-6.3,3.4-12.8,5.2-19c0.7-2.6,1.5-5.3,2.2-7.9c0.7-2.5,1.4-5.1,2.1-7.6c1.7-6.2,3.5-12.6,5.2-18.9c0.8-3.1,2.4-5.1,5-6.4
				C55.4,5.8,58.9,4.2,62.6,4.2 M88.1,76.4c3.5,0,5.7-1.9,6.8-5.8c2.9-10.2,6-21.4,9.5-34.2c1.1-4.2,0.4-5.9-3.4-8
				c-1.2-0.7-2.6-1-3.8-1.4c-4.2-1.2-8.5-2.4-12.6-3.5l-4.5-1.2L79.2,22c-1.5-0.4-3.1-0.9-4.6-1.3c-4.2-1.2-8.5-2.4-12.8-3.5
				c-1.2-0.3-2.3-0.5-3.2-0.5c-3.3,0-5.4,1.8-6.5,5.5c-3.2,11.3-6.4,22.8-9.5,34.2c-1.1,4.2,0.3,7.1,4.4,8.9
				c0.9,0.4,1.8,0.6,2.7,0.9c0.2,0.1,0.4,0.1,0.6,0.2c8.7,2.4,17.4,4.8,26,7.2c0.9,0.2,1.7,0.5,2.6,0.7c2.1,0.6,4.2,1.2,6.4,1.7
				C86.4,76.3,87.3,76.4,88.1,76.4 M56.9,92c1.9,0,3.3-1.1,4-3.4c0.9-2.7,1.8-5.7,2.4-8.6c0.7-3.6-0.9-6.3-4.6-7.6
				c-1.5-0.5-3-0.9-4.5-1.3c-0.7-0.2-1.4-0.4-2.1-0.6c-0.7-0.2-1.5-0.4-2.2-0.6c-1.7-0.4-3.4-0.9-5-1.4c-0.6-0.2-1.2-0.3-1.7-0.3
				c-1.7,0-3,1-3.8,3c-0.5,1.3-0.7,2.5-0.6,3.8c0.7,6.5,11.4,16.7,17.9,17C56.8,92,56.8,92,56.9,92 M71.8,95.1c4.7,0,9.2-1,13.2-3.1
				c2.4-1.2,4.2-3.5,4.8-6.1c0.7-3.2-0.3-4.9-3.4-5.8c-1.6-0.5-3.2-0.9-4.7-1.3c-0.6-0.2-1.2-0.3-1.8-0.5c-0.7-0.2-1.4-0.4-2.1-0.6
				c-1.6-0.5-3.2-0.9-4.8-1.3c-0.7-0.2-1.5-0.3-2.1-0.3c-2.8,0-4.9,1.5-5.8,4.2c-0.9,2.6-1.7,5.5-2.5,9.1c-0.3,1.4-0.2,2.7,0.5,3.6
				c0.6,0.9,1.5,1.4,2.8,1.7C67.8,95,69.8,95.1,71.8,95.1 M62.6,3.2c-3.8,0-7.2,1.4-10.5,3c-2.9,1.4-4.7,3.7-5.5,7
				c-2.3,8.9-4.8,17.7-7.3,26.5c-2.5,9-5.1,17.9-7.4,26.9c-1.2,4.5-1.8,9.1-0.1,13.7c3.3,8.4,9.9,13.8,17.4,18.3
				c0.2,0.1,0.5,0.2,0.7,0.2c0.5,0,1-0.4,1.4-0.9c1.7-2.4,2.3-3.2,3.6-3.2c0.7,0,1.6,0.2,3,0.6c1.5,0.4,3,0.8,4.5,1.2
				c3.5,1.1,3.7,1.2,3.6,5c0,1.7,0.6,2.2,2.2,2.2c0.3,0,0.7,0,1,0c6.8,0,13.2-1.7,19.4-4.5c1.2-0.5,2.1-1.3,3.1-2.2
				c3.8-3.4,5.9-7.9,7.2-12.6c5.1-17.9,10-35.9,15-53.8c0.8-3,0.4-5.5-1-8.1c-2.6-4.9-7.1-7.4-11.9-9.6c-7.7-3.6-16-5.3-24.1-7.7
				c-4.1-1.2-8.3-1.4-12.5-2C63.9,3.3,63.2,3.2,62.6,3.2L62.6,3.2z M88.1,75.4c-0.7,0-1.6-0.1-2.4-0.3c-3-0.7-6-1.6-9-2.4
				c-8.7-2.4-17.4-4.8-26-7.2c-1.1-0.3-2.2-0.6-3.2-1c-3.6-1.6-4.9-3.9-3.9-7.7c3.1-11.4,6.2-22.8,9.5-34.2c0.9-3.2,2.7-4.8,5.5-4.8
				c0.9,0,1.9,0.1,3,0.4c6.1,1.6,12.2,3.4,18.3,5c0,0,0,0,0,0c5.7,1.6,11.4,3.1,17.1,4.8c1.2,0.3,2.5,0.7,3.5,1.3
				c3.4,1.9,4,3.1,3,6.9c-3.1,11.4-6.3,22.8-9.5,34.2C93,73.8,91.1,75.4,88.1,75.4L88.1,75.4z M56.9,91c-0.1,0-0.1,0-0.2,0
				c-6-0.3-16.3-10.1-17-16.2c-0.1-1.2,0.1-2.3,0.5-3.3c0.6-1.4,1.5-2.4,2.9-2.4c0.4,0,0.9,0.1,1.4,0.2c2.4,0.8,4.9,1.4,7.3,2.1
				c2.2,0.6,4.4,1.1,6.5,1.8c3.1,1.1,4.6,3.3,4,6.4c-0.6,2.9-1.5,5.7-2.4,8.5C59.5,89.8,58.7,91,56.9,91L56.9,91z M71.8,94.1
				c-2,0-3.9-0.2-5.9-0.5c-2.4-0.4-2.9-2.1-2.5-4.1c0.7-3,1.4-6,2.5-8.9c0.8-2.4,2.6-3.5,4.9-3.5c0.6,0,1.2,0.1,1.9,0.2
				c2.3,0.5,4.6,1.3,6.9,1.9c2.2,0.6,4.4,1.2,6.5,1.8c2.7,0.8,3.3,2,2.7,4.7c-0.6,2.5-2.2,4.4-4.2,5.5
				C80.5,93.2,76.2,94.1,71.8,94.1L71.8,94.1z"/>
		</g>
		<path class="st3" d="M45,126.5c2.6-9.4,5-18.2,7.5-27c0.8-2.7,1.2-3,3.9-2.2c10,2.8,8.6,1.2,6.2,10.3c-1.9,7.2-4,14.3-6.1,22
			c-2.6-4.1-1.1-8.6-2.7-12.6C50.5,119.5,49.4,123.9,45,126.5z"/>
		<path class="st2" d="M52.8,120.9c-0.1,3.4,0.4,6.9,2.3,10.1c0.9,1.6,1.8,3.1,2.1,5c1,5.4-1.6,9.3-7.6,10.6
			c-3.8,0.8-8.8-1.2-10.3-6.5c-1.5-5.4-0.7-7.2,5.8-11.5C48.4,126.5,51,124,52.8,120.9z"/>
		<path class="st3" d="M59,83.3c-0.3,0.9-0.5,1.9-0.8,2.8c-0.8,2.6-1.8,3.2-4.2,1.7c-3.7-2.4-7.5-4.7-10.2-8.4
			c-0.7-1-1.2-2.2-1.5-3.4c-0.8-3.9,0-4.7,3.9-3.7c3.2,0.9,6.5,1.8,9.7,2.7c4.4,1.3,4.7,1.9,3.6,6.3C59.4,82,59.2,82.6,59,83.3z"/>
		<path class="st3" d="M78.8,81.4c2.2,0.6,4.3,1.2,6.5,1.8c1.5,0.4,1.7,1.3,1.1,2.5c-1,2.1-2.7,3.5-4.8,4.4
			c-4.1,1.7-8.4,1.6-12.6,1.9C66,92.1,65.4,91,66.1,88c0.5-1.8,0.9-3.5,1.5-5.3c1-3.4,1.9-3.9,5.6-3C75.1,80.3,76.9,80.8,78.8,81.4
			C78.8,81.4,78.8,81.4,78.8,81.4z"/>
	</g>
</g>
</svg>
